<mxfile host="app.diagrams.net" modified="2024-07-22T20:15:54.955Z" agent="Mozilla/5.0 (Windows NT 10.0; Win64; x64) AppleWebKit/537.36 (KHTML, like Gecko) Chrome/126.0.0.0 Safari/537.36" version="24.7.3" etag="iL5eUYDJBEM0b5d81Q3n" type="github">
  <diagram name="Page-1" id="SnaNQcAF_fuNc_r6MmoM">
    <mxGraphModel>
      <root>
        <mxCell id="0" />
        <mxCell id="1" parent="0" />
      </root>
    </mxGraphModel>
  </diagram>
</mxfile>
